<mxfile host="app.diagrams.net" modified="2023-10-05T14:06:20.518Z" agent="Mozilla/5.0 (Macintosh; Intel Mac OS X 10_15_7) AppleWebKit/537.36 (KHTML, like Gecko) Chrome/117.0.0.0 Safari/537.36" etag="gMM4USlHdzOnl_KtyCi2" version="22.0.2" type="github">
  <diagram name="Halaman-1" id="zbL0tHS9NxCWWQ_GLFmR">
    <mxGraphModel dx="1137" dy="754" grid="1" gridSize="10" guides="1" tooltips="1" connect="1" arrows="1" fold="1" page="1" pageScale="1" pageWidth="827" pageHeight="1169" math="0" shadow="0">
      <root>
        <mxCell id="0" />
        <mxCell id="1" parent="0" />
        <mxCell id="L02m6PkvPeWe66beyYOA-1" value="&lt;font style=&quot;font-size: 14px;&quot; face=&quot;Times New Roman&quot;&gt;1.0&lt;br&gt;Landing Page&lt;/font&gt;" style="ellipse;whiteSpace=wrap;html=1;aspect=fixed;" vertex="1" parent="1">
          <mxGeometry x="350" y="53" width="80" height="80" as="geometry" />
        </mxCell>
        <mxCell id="L02m6PkvPeWe66beyYOA-6" value="&lt;font face=&quot;Times New Roman&quot; style=&quot;font-size: 14px;&quot;&gt;2.0&lt;br&gt;Login&lt;/font&gt;" style="ellipse;whiteSpace=wrap;html=1;aspect=fixed;" vertex="1" parent="1">
          <mxGeometry x="360" y="160" width="80" height="80" as="geometry" />
        </mxCell>
        <mxCell id="L02m6PkvPeWe66beyYOA-37" style="edgeStyle=orthogonalEdgeStyle;rounded=0;orthogonalLoop=1;jettySize=auto;html=1;entryX=1;entryY=0.5;entryDx=0;entryDy=0;" edge="1" parent="1" source="L02m6PkvPeWe66beyYOA-7" target="L02m6PkvPeWe66beyYOA-14">
          <mxGeometry relative="1" as="geometry">
            <Array as="points">
              <mxPoint x="290" y="310" />
              <mxPoint x="290" y="275" />
            </Array>
          </mxGeometry>
        </mxCell>
        <mxCell id="L02m6PkvPeWe66beyYOA-44" value="Data Kurir" style="edgeLabel;html=1;align=center;verticalAlign=middle;resizable=0;points=[];" vertex="1" connectable="0" parent="L02m6PkvPeWe66beyYOA-37">
          <mxGeometry x="-0.25" y="-4" relative="1" as="geometry">
            <mxPoint x="8" y="4" as="offset" />
          </mxGeometry>
        </mxCell>
        <mxCell id="L02m6PkvPeWe66beyYOA-7" value="&lt;font face=&quot;Times New Roman&quot; style=&quot;font-size: 14px;&quot;&gt;3.0&lt;br&gt;Data Kurir&lt;/font&gt;" style="ellipse;whiteSpace=wrap;html=1;aspect=fixed;" vertex="1" parent="1">
          <mxGeometry x="360" y="270" width="80" height="80" as="geometry" />
        </mxCell>
        <mxCell id="L02m6PkvPeWe66beyYOA-45" style="edgeStyle=orthogonalEdgeStyle;rounded=0;orthogonalLoop=1;jettySize=auto;html=1;exitX=1;exitY=0.5;exitDx=0;exitDy=0;entryX=0;entryY=0.5;entryDx=0;entryDy=0;" edge="1" parent="1" source="L02m6PkvPeWe66beyYOA-8" target="L02m6PkvPeWe66beyYOA-18">
          <mxGeometry relative="1" as="geometry" />
        </mxCell>
        <mxCell id="L02m6PkvPeWe66beyYOA-46" value="Data Koran" style="edgeLabel;html=1;align=center;verticalAlign=middle;resizable=0;points=[];" vertex="1" connectable="0" parent="L02m6PkvPeWe66beyYOA-45">
          <mxGeometry x="-0.1212" y="-3" relative="1" as="geometry">
            <mxPoint y="-3" as="offset" />
          </mxGeometry>
        </mxCell>
        <mxCell id="L02m6PkvPeWe66beyYOA-8" value="&lt;font face=&quot;Times New Roman&quot; style=&quot;font-size: 14px;&quot;&gt;4.0&lt;br&gt;Data Koran&lt;/font&gt;" style="ellipse;whiteSpace=wrap;html=1;aspect=fixed;" vertex="1" parent="1">
          <mxGeometry x="360" y="380" width="80" height="80" as="geometry" />
        </mxCell>
        <mxCell id="L02m6PkvPeWe66beyYOA-48" style="edgeStyle=orthogonalEdgeStyle;rounded=0;orthogonalLoop=1;jettySize=auto;html=1;exitX=1;exitY=0.5;exitDx=0;exitDy=0;entryX=1;entryY=0.5;entryDx=0;entryDy=0;" edge="1" parent="1" source="L02m6PkvPeWe66beyYOA-9" target="L02m6PkvPeWe66beyYOA-15">
          <mxGeometry relative="1" as="geometry">
            <Array as="points">
              <mxPoint x="750" y="530" />
              <mxPoint x="750" y="165" />
            </Array>
          </mxGeometry>
        </mxCell>
        <mxCell id="L02m6PkvPeWe66beyYOA-49" value="Data Pelanggan" style="edgeLabel;html=1;align=center;verticalAlign=middle;resizable=0;points=[];" vertex="1" connectable="0" parent="L02m6PkvPeWe66beyYOA-48">
          <mxGeometry x="-0.812" y="2" relative="1" as="geometry">
            <mxPoint x="18" y="2" as="offset" />
          </mxGeometry>
        </mxCell>
        <mxCell id="L02m6PkvPeWe66beyYOA-55" style="edgeStyle=orthogonalEdgeStyle;rounded=0;orthogonalLoop=1;jettySize=auto;html=1;exitX=0;exitY=0;exitDx=0;exitDy=0;entryX=0.116;entryY=-0.005;entryDx=0;entryDy=0;entryPerimeter=0;" edge="1" parent="1" source="L02m6PkvPeWe66beyYOA-9" target="L02m6PkvPeWe66beyYOA-12">
          <mxGeometry relative="1" as="geometry">
            <Array as="points">
              <mxPoint x="80" y="502" />
              <mxPoint x="80" y="140" />
              <mxPoint x="152" y="140" />
            </Array>
          </mxGeometry>
        </mxCell>
        <mxCell id="L02m6PkvPeWe66beyYOA-56" value="Laporan Data Pelanggan" style="edgeLabel;html=1;align=center;verticalAlign=middle;resizable=0;points=[];" vertex="1" connectable="0" parent="L02m6PkvPeWe66beyYOA-55">
          <mxGeometry x="-0.5946" y="1" relative="1" as="geometry">
            <mxPoint as="offset" />
          </mxGeometry>
        </mxCell>
        <mxCell id="L02m6PkvPeWe66beyYOA-9" value="&lt;font face=&quot;Times New Roman&quot; style=&quot;font-size: 14px;&quot;&gt;5.0&lt;br&gt;Data Pelanggan&lt;/font&gt;" style="ellipse;whiteSpace=wrap;html=1;aspect=fixed;" vertex="1" parent="1">
          <mxGeometry x="360" y="490" width="80" height="80" as="geometry" />
        </mxCell>
        <mxCell id="L02m6PkvPeWe66beyYOA-50" style="edgeStyle=orthogonalEdgeStyle;rounded=0;orthogonalLoop=1;jettySize=auto;html=1;exitX=1;exitY=0.5;exitDx=0;exitDy=0;entryX=0;entryY=0.5;entryDx=0;entryDy=0;" edge="1" parent="1" source="L02m6PkvPeWe66beyYOA-10" target="L02m6PkvPeWe66beyYOA-16">
          <mxGeometry relative="1" as="geometry">
            <Array as="points">
              <mxPoint x="540" y="640" />
              <mxPoint x="540" y="615" />
            </Array>
          </mxGeometry>
        </mxCell>
        <mxCell id="L02m6PkvPeWe66beyYOA-51" style="edgeStyle=orthogonalEdgeStyle;rounded=0;orthogonalLoop=1;jettySize=auto;html=1;exitX=1;exitY=0.5;exitDx=0;exitDy=0;entryX=0;entryY=0.5;entryDx=0;entryDy=0;" edge="1" parent="1" source="L02m6PkvPeWe66beyYOA-10" target="L02m6PkvPeWe66beyYOA-17">
          <mxGeometry relative="1" as="geometry">
            <Array as="points">
              <mxPoint x="540" y="640" />
              <mxPoint x="540" y="705" />
            </Array>
          </mxGeometry>
        </mxCell>
        <mxCell id="L02m6PkvPeWe66beyYOA-52" value="Data Distribusi" style="edgeLabel;html=1;align=center;verticalAlign=middle;resizable=0;points=[];" vertex="1" connectable="0" parent="L02m6PkvPeWe66beyYOA-51">
          <mxGeometry x="-0.7347" y="-1" relative="1" as="geometry">
            <mxPoint x="35" y="-1" as="offset" />
          </mxGeometry>
        </mxCell>
        <mxCell id="L02m6PkvPeWe66beyYOA-10" value="&lt;font face=&quot;Times New Roman&quot; style=&quot;font-size: 14px;&quot;&gt;6.0&lt;br&gt;Data Distribusi&lt;/font&gt;" style="ellipse;whiteSpace=wrap;html=1;aspect=fixed;" vertex="1" parent="1">
          <mxGeometry x="360" y="600" width="80" height="80" as="geometry" />
        </mxCell>
        <mxCell id="L02m6PkvPeWe66beyYOA-38" style="edgeStyle=orthogonalEdgeStyle;rounded=0;orthogonalLoop=1;jettySize=auto;html=1;entryX=0;entryY=0.5;entryDx=0;entryDy=0;exitX=0;exitY=0.25;exitDx=0;exitDy=0;" edge="1" parent="1" source="L02m6PkvPeWe66beyYOA-12" target="L02m6PkvPeWe66beyYOA-8">
          <mxGeometry relative="1" as="geometry">
            <Array as="points">
              <mxPoint x="140" y="180" />
              <mxPoint x="110" y="180" />
              <mxPoint x="110" y="420" />
            </Array>
          </mxGeometry>
        </mxCell>
        <mxCell id="L02m6PkvPeWe66beyYOA-39" value="Add Data Koran" style="edgeLabel;html=1;align=center;verticalAlign=middle;resizable=0;points=[];" vertex="1" connectable="0" parent="L02m6PkvPeWe66beyYOA-38">
          <mxGeometry x="0.3505" y="-1" relative="1" as="geometry">
            <mxPoint as="offset" />
          </mxGeometry>
        </mxCell>
        <mxCell id="L02m6PkvPeWe66beyYOA-42" style="edgeStyle=orthogonalEdgeStyle;rounded=0;orthogonalLoop=1;jettySize=auto;html=1;exitX=0;exitY=0;exitDx=0;exitDy=0;entryX=0;entryY=0.5;entryDx=0;entryDy=0;" edge="1" parent="1" source="L02m6PkvPeWe66beyYOA-12" target="L02m6PkvPeWe66beyYOA-10">
          <mxGeometry relative="1" as="geometry">
            <Array as="points">
              <mxPoint x="90" y="160" />
              <mxPoint x="90" y="640" />
            </Array>
          </mxGeometry>
        </mxCell>
        <mxCell id="L02m6PkvPeWe66beyYOA-43" value="Add Alokasi Distribusi" style="edgeLabel;html=1;align=center;verticalAlign=middle;resizable=0;points=[];" vertex="1" connectable="0" parent="L02m6PkvPeWe66beyYOA-42">
          <mxGeometry x="0.4848" y="-3" relative="1" as="geometry">
            <mxPoint x="43" y="-3" as="offset" />
          </mxGeometry>
        </mxCell>
        <mxCell id="L02m6PkvPeWe66beyYOA-12" value="&lt;font style=&quot;font-size: 14px;&quot; face=&quot;Times New Roman&quot;&gt;Admin&lt;/font&gt;" style="rounded=0;whiteSpace=wrap;html=1;" vertex="1" parent="1">
          <mxGeometry x="140" y="160" width="100" height="40" as="geometry" />
        </mxCell>
        <mxCell id="L02m6PkvPeWe66beyYOA-25" style="edgeStyle=orthogonalEdgeStyle;rounded=0;orthogonalLoop=1;jettySize=auto;html=1;exitX=0;exitY=0.5;exitDx=0;exitDy=0;entryX=1;entryY=0.5;entryDx=0;entryDy=0;" edge="1" parent="1" source="L02m6PkvPeWe66beyYOA-13" target="L02m6PkvPeWe66beyYOA-6">
          <mxGeometry relative="1" as="geometry">
            <mxPoint x="430" y="200" as="targetPoint" />
            <Array as="points">
              <mxPoint x="480" y="281" />
              <mxPoint x="480" y="200" />
            </Array>
          </mxGeometry>
        </mxCell>
        <mxCell id="L02m6PkvPeWe66beyYOA-27" value="Data Login Kurir" style="edgeLabel;html=1;align=center;verticalAlign=middle;resizable=0;points=[];" vertex="1" connectable="0" parent="L02m6PkvPeWe66beyYOA-25">
          <mxGeometry x="-0.7605" y="3" relative="1" as="geometry">
            <mxPoint x="-32" y="-3" as="offset" />
          </mxGeometry>
        </mxCell>
        <mxCell id="L02m6PkvPeWe66beyYOA-61" style="edgeStyle=orthogonalEdgeStyle;rounded=0;orthogonalLoop=1;jettySize=auto;html=1;exitX=1;exitY=0.25;exitDx=0;exitDy=0;entryX=1;entryY=0.75;entryDx=0;entryDy=0;" edge="1" parent="1" source="L02m6PkvPeWe66beyYOA-13" target="L02m6PkvPeWe66beyYOA-16">
          <mxGeometry relative="1" as="geometry">
            <Array as="points">
              <mxPoint x="770" y="271" />
              <mxPoint x="770" y="622" />
            </Array>
          </mxGeometry>
        </mxCell>
        <mxCell id="L02m6PkvPeWe66beyYOA-62" value="Konfirmasi Status Pengiriman" style="edgeLabel;html=1;align=center;verticalAlign=middle;resizable=0;points=[];rotation=-90;" vertex="1" connectable="0" parent="L02m6PkvPeWe66beyYOA-61">
          <mxGeometry x="0.0867" y="1" relative="1" as="geometry">
            <mxPoint x="-2" as="offset" />
          </mxGeometry>
        </mxCell>
        <mxCell id="L02m6PkvPeWe66beyYOA-13" value="&lt;font style=&quot;font-size: 14px;&quot; face=&quot;Times New Roman&quot;&gt;Kurir&lt;/font&gt;" style="rounded=0;whiteSpace=wrap;html=1;" vertex="1" parent="1">
          <mxGeometry x="590" y="261" width="100" height="40" as="geometry" />
        </mxCell>
        <mxCell id="L02m6PkvPeWe66beyYOA-65" style="edgeStyle=orthogonalEdgeStyle;rounded=0;orthogonalLoop=1;jettySize=auto;html=1;exitX=0;exitY=0.5;exitDx=0;exitDy=0;entryX=0;entryY=0.5;entryDx=0;entryDy=0;" edge="1" parent="1" source="L02m6PkvPeWe66beyYOA-14" target="L02m6PkvPeWe66beyYOA-63">
          <mxGeometry relative="1" as="geometry">
            <Array as="points">
              <mxPoint x="70" y="275" />
              <mxPoint x="70" y="750" />
            </Array>
          </mxGeometry>
        </mxCell>
        <mxCell id="L02m6PkvPeWe66beyYOA-66" value="Data Kurir" style="edgeLabel;html=1;align=center;verticalAlign=middle;resizable=0;points=[];" vertex="1" connectable="0" parent="L02m6PkvPeWe66beyYOA-65">
          <mxGeometry x="0.518" y="4" relative="1" as="geometry">
            <mxPoint y="3" as="offset" />
          </mxGeometry>
        </mxCell>
        <mxCell id="L02m6PkvPeWe66beyYOA-14" value="&lt;font style=&quot;font-size: 14px;&quot; face=&quot;Times New Roman&quot;&gt;users&lt;/font&gt;" style="html=1;dashed=0;whiteSpace=wrap;shape=partialRectangle;right=0;left=0;" vertex="1" parent="1">
          <mxGeometry x="174" y="260" width="100" height="30" as="geometry" />
        </mxCell>
        <mxCell id="L02m6PkvPeWe66beyYOA-15" value="&lt;font style=&quot;font-size: 14px;&quot; face=&quot;Times New Roman&quot;&gt;customers&lt;/font&gt;" style="html=1;dashed=0;whiteSpace=wrap;shape=partialRectangle;right=0;left=0;" vertex="1" parent="1">
          <mxGeometry x="590" y="150" width="100" height="30" as="geometry" />
        </mxCell>
        <mxCell id="L02m6PkvPeWe66beyYOA-57" style="edgeStyle=orthogonalEdgeStyle;rounded=0;orthogonalLoop=1;jettySize=auto;html=1;" edge="1" parent="1" source="L02m6PkvPeWe66beyYOA-16">
          <mxGeometry relative="1" as="geometry">
            <mxPoint x="690" y="290" as="targetPoint" />
            <Array as="points">
              <mxPoint x="710" y="610" />
              <mxPoint x="710" y="290" />
            </Array>
          </mxGeometry>
        </mxCell>
        <mxCell id="L02m6PkvPeWe66beyYOA-58" value="Data Distribusi Harian" style="edgeLabel;html=1;align=center;verticalAlign=middle;resizable=0;points=[];rotation=-90;" vertex="1" connectable="0" parent="L02m6PkvPeWe66beyYOA-57">
          <mxGeometry x="0.0636" y="4" relative="1" as="geometry">
            <mxPoint x="4" as="offset" />
          </mxGeometry>
        </mxCell>
        <mxCell id="L02m6PkvPeWe66beyYOA-59" style="edgeStyle=orthogonalEdgeStyle;rounded=0;orthogonalLoop=1;jettySize=auto;html=1;exitX=1;exitY=0.5;exitDx=0;exitDy=0;entryX=1;entryY=0.5;entryDx=0;entryDy=0;" edge="1" parent="1" source="L02m6PkvPeWe66beyYOA-16" target="L02m6PkvPeWe66beyYOA-13">
          <mxGeometry relative="1" as="geometry">
            <Array as="points">
              <mxPoint x="730" y="615" />
              <mxPoint x="730" y="281" />
            </Array>
          </mxGeometry>
        </mxCell>
        <mxCell id="L02m6PkvPeWe66beyYOA-60" value="Laporan Distribusi" style="edgeLabel;html=1;align=center;verticalAlign=middle;resizable=0;points=[];rotation=-90;" vertex="1" connectable="0" parent="L02m6PkvPeWe66beyYOA-59">
          <mxGeometry x="-0.1749" y="-1" relative="1" as="geometry">
            <mxPoint y="-46" as="offset" />
          </mxGeometry>
        </mxCell>
        <mxCell id="L02m6PkvPeWe66beyYOA-67" style="edgeStyle=orthogonalEdgeStyle;rounded=0;orthogonalLoop=1;jettySize=auto;html=1;exitX=0.75;exitY=1;exitDx=0;exitDy=0;entryX=1;entryY=0.5;entryDx=0;entryDy=0;" edge="1" parent="1" source="L02m6PkvPeWe66beyYOA-16" target="L02m6PkvPeWe66beyYOA-63">
          <mxGeometry relative="1" as="geometry">
            <Array as="points">
              <mxPoint x="645" y="640" />
              <mxPoint x="720" y="640" />
              <mxPoint x="720" y="750" />
            </Array>
          </mxGeometry>
        </mxCell>
        <mxCell id="L02m6PkvPeWe66beyYOA-16" value="&lt;font style=&quot;font-size: 14px;&quot; face=&quot;Times New Roman&quot;&gt;distributions&lt;/font&gt;" style="html=1;dashed=0;whiteSpace=wrap;shape=partialRectangle;right=0;left=0;" vertex="1" parent="1">
          <mxGeometry x="570" y="600" width="100" height="30" as="geometry" />
        </mxCell>
        <mxCell id="L02m6PkvPeWe66beyYOA-68" style="edgeStyle=orthogonalEdgeStyle;rounded=0;orthogonalLoop=1;jettySize=auto;html=1;exitX=1;exitY=0.5;exitDx=0;exitDy=0;entryX=1;entryY=0.5;entryDx=0;entryDy=0;" edge="1" parent="1" source="L02m6PkvPeWe66beyYOA-17" target="L02m6PkvPeWe66beyYOA-63">
          <mxGeometry relative="1" as="geometry" />
        </mxCell>
        <mxCell id="L02m6PkvPeWe66beyYOA-69" value="Data Distribusi Kurir" style="edgeLabel;html=1;align=center;verticalAlign=middle;resizable=0;points=[];" vertex="1" connectable="0" parent="L02m6PkvPeWe66beyYOA-68">
          <mxGeometry x="0.2675" y="1" relative="1" as="geometry">
            <mxPoint as="offset" />
          </mxGeometry>
        </mxCell>
        <mxCell id="L02m6PkvPeWe66beyYOA-17" value="&lt;font style=&quot;font-size: 14px;&quot; face=&quot;Times New Roman&quot;&gt;user distributions&lt;/font&gt;" style="html=1;dashed=0;whiteSpace=wrap;shape=partialRectangle;right=0;left=0;" vertex="1" parent="1">
          <mxGeometry x="570" y="690" width="100" height="30" as="geometry" />
        </mxCell>
        <mxCell id="L02m6PkvPeWe66beyYOA-53" style="edgeStyle=orthogonalEdgeStyle;rounded=0;orthogonalLoop=1;jettySize=auto;html=1;exitX=0.25;exitY=1;exitDx=0;exitDy=0;" edge="1" parent="1" source="L02m6PkvPeWe66beyYOA-18">
          <mxGeometry relative="1" as="geometry">
            <mxPoint x="450" y="640" as="targetPoint" />
            <Array as="points">
              <mxPoint x="605" y="580" />
              <mxPoint x="450" y="580" />
            </Array>
          </mxGeometry>
        </mxCell>
        <mxCell id="L02m6PkvPeWe66beyYOA-54" value="Data Koran&amp;nbsp;" style="edgeLabel;html=1;align=center;verticalAlign=middle;resizable=0;points=[];" vertex="1" connectable="0" parent="L02m6PkvPeWe66beyYOA-53">
          <mxGeometry x="0.366" y="-1" relative="1" as="geometry">
            <mxPoint as="offset" />
          </mxGeometry>
        </mxCell>
        <mxCell id="L02m6PkvPeWe66beyYOA-18" value="&lt;font style=&quot;font-size: 14px;&quot; face=&quot;Times New Roman&quot;&gt;newspapers&lt;/font&gt;" style="html=1;dashed=0;whiteSpace=wrap;shape=partialRectangle;right=0;left=0;" vertex="1" parent="1">
          <mxGeometry x="580" y="405" width="100" height="30" as="geometry" />
        </mxCell>
        <mxCell id="L02m6PkvPeWe66beyYOA-19" value="" style="endArrow=classic;html=1;rounded=0;exitX=0.5;exitY=0;exitDx=0;exitDy=0;" edge="1" parent="1" source="L02m6PkvPeWe66beyYOA-15">
          <mxGeometry width="50" height="50" relative="1" as="geometry">
            <mxPoint x="510" y="390" as="sourcePoint" />
            <mxPoint x="430" y="90" as="targetPoint" />
            <Array as="points">
              <mxPoint x="640" y="90" />
            </Array>
          </mxGeometry>
        </mxCell>
        <mxCell id="L02m6PkvPeWe66beyYOA-21" value="Data Penyebaran Pelanggan" style="edgeLabel;html=1;align=center;verticalAlign=middle;resizable=0;points=[];" vertex="1" connectable="0" parent="L02m6PkvPeWe66beyYOA-19">
          <mxGeometry x="0.7032" y="2" relative="1" as="geometry">
            <mxPoint x="59" y="-3" as="offset" />
          </mxGeometry>
        </mxCell>
        <mxCell id="L02m6PkvPeWe66beyYOA-22" value="" style="endArrow=classic;html=1;rounded=0;exitX=1;exitY=0.5;exitDx=0;exitDy=0;entryX=0.03;entryY=0.246;entryDx=0;entryDy=0;entryPerimeter=0;" edge="1" parent="1" source="L02m6PkvPeWe66beyYOA-12" target="L02m6PkvPeWe66beyYOA-6">
          <mxGeometry width="50" height="50" relative="1" as="geometry">
            <mxPoint x="510" y="390" as="sourcePoint" />
            <mxPoint x="350" y="180" as="targetPoint" />
          </mxGeometry>
        </mxCell>
        <mxCell id="L02m6PkvPeWe66beyYOA-23" value="Data Login Admin" style="edgeLabel;html=1;align=center;verticalAlign=middle;resizable=0;points=[];" vertex="1" connectable="0" parent="L02m6PkvPeWe66beyYOA-22">
          <mxGeometry x="-0.2917" y="1" relative="1" as="geometry">
            <mxPoint x="11" y="1" as="offset" />
          </mxGeometry>
        </mxCell>
        <mxCell id="L02m6PkvPeWe66beyYOA-28" value="" style="endArrow=classic;html=1;rounded=0;exitX=0;exitY=0.5;exitDx=0;exitDy=0;entryX=0.5;entryY=0;entryDx=0;entryDy=0;" edge="1" parent="1" source="L02m6PkvPeWe66beyYOA-1" target="L02m6PkvPeWe66beyYOA-12">
          <mxGeometry width="50" height="50" relative="1" as="geometry">
            <mxPoint x="510" y="390" as="sourcePoint" />
            <mxPoint x="560" y="340" as="targetPoint" />
            <Array as="points">
              <mxPoint x="190" y="93" />
            </Array>
          </mxGeometry>
        </mxCell>
        <mxCell id="L02m6PkvPeWe66beyYOA-29" value="Data Penyebaran Pelanggan" style="edgeLabel;html=1;align=center;verticalAlign=middle;resizable=0;points=[];" vertex="1" connectable="0" parent="L02m6PkvPeWe66beyYOA-28">
          <mxGeometry x="-0.2087" y="-2" relative="1" as="geometry">
            <mxPoint x="10" y="2" as="offset" />
          </mxGeometry>
        </mxCell>
        <mxCell id="L02m6PkvPeWe66beyYOA-30" value="" style="endArrow=classic;html=1;rounded=0;entryX=0;entryY=0.25;entryDx=0;entryDy=0;entryPerimeter=0;" edge="1" parent="1" target="L02m6PkvPeWe66beyYOA-13">
          <mxGeometry width="50" height="50" relative="1" as="geometry">
            <mxPoint x="430" y="109" as="sourcePoint" />
            <mxPoint x="200" y="170" as="targetPoint" />
            <Array as="points">
              <mxPoint x="500" y="109" />
              <mxPoint x="500" y="270" />
            </Array>
          </mxGeometry>
        </mxCell>
        <mxCell id="L02m6PkvPeWe66beyYOA-31" value="Data Penyebaran Pelanggan" style="edgeLabel;html=1;align=center;verticalAlign=middle;resizable=0;points=[];rotation=90;" vertex="1" connectable="0" parent="L02m6PkvPeWe66beyYOA-30">
          <mxGeometry x="-0.2087" y="-2" relative="1" as="geometry">
            <mxPoint x="4" y="20" as="offset" />
          </mxGeometry>
        </mxCell>
        <mxCell id="L02m6PkvPeWe66beyYOA-32" style="edgeStyle=orthogonalEdgeStyle;rounded=0;orthogonalLoop=1;jettySize=auto;html=1;exitX=0.75;exitY=0;exitDx=0;exitDy=0;" edge="1" parent="1" source="L02m6PkvPeWe66beyYOA-14">
          <mxGeometry relative="1" as="geometry">
            <mxPoint x="360" y="210" as="targetPoint" />
            <mxPoint x="600" y="291" as="sourcePoint" />
            <Array as="points">
              <mxPoint x="255" y="210" />
              <mxPoint x="360" y="210" />
            </Array>
          </mxGeometry>
        </mxCell>
        <mxCell id="L02m6PkvPeWe66beyYOA-33" value="Data Login&amp;nbsp;" style="edgeLabel;html=1;align=center;verticalAlign=middle;resizable=0;points=[];" vertex="1" connectable="0" parent="L02m6PkvPeWe66beyYOA-32">
          <mxGeometry x="-0.7605" y="3" relative="1" as="geometry">
            <mxPoint x="57" y="-29" as="offset" />
          </mxGeometry>
        </mxCell>
        <mxCell id="L02m6PkvPeWe66beyYOA-35" style="edgeStyle=orthogonalEdgeStyle;rounded=0;orthogonalLoop=1;jettySize=auto;html=1;entryX=-0.013;entryY=0.676;entryDx=0;entryDy=0;entryPerimeter=0;" edge="1" parent="1" source="L02m6PkvPeWe66beyYOA-12" target="L02m6PkvPeWe66beyYOA-7">
          <mxGeometry relative="1" as="geometry">
            <Array as="points">
              <mxPoint x="120" y="190" />
              <mxPoint x="120" y="324" />
            </Array>
          </mxGeometry>
        </mxCell>
        <mxCell id="L02m6PkvPeWe66beyYOA-36" value="Add Data Kurir" style="edgeLabel;html=1;align=center;verticalAlign=middle;resizable=0;points=[];" vertex="1" connectable="0" parent="L02m6PkvPeWe66beyYOA-35">
          <mxGeometry x="0.1111" y="-1" relative="1" as="geometry">
            <mxPoint y="-2" as="offset" />
          </mxGeometry>
        </mxCell>
        <mxCell id="L02m6PkvPeWe66beyYOA-40" style="edgeStyle=orthogonalEdgeStyle;rounded=0;orthogonalLoop=1;jettySize=auto;html=1;" edge="1" parent="1">
          <mxGeometry relative="1" as="geometry">
            <mxPoint x="140" y="170" as="sourcePoint" />
            <mxPoint x="360" y="530" as="targetPoint" />
            <Array as="points">
              <mxPoint x="140" y="180" />
              <mxPoint x="140" y="170" />
              <mxPoint x="100" y="170" />
              <mxPoint x="100" y="530" />
              <mxPoint x="360" y="530" />
            </Array>
          </mxGeometry>
        </mxCell>
        <mxCell id="L02m6PkvPeWe66beyYOA-41" value="Add Data Pelanggan" style="edgeLabel;html=1;align=center;verticalAlign=middle;resizable=0;points=[];" vertex="1" connectable="0" parent="L02m6PkvPeWe66beyYOA-40">
          <mxGeometry x="0.3505" y="-1" relative="1" as="geometry">
            <mxPoint x="51" y="-1" as="offset" />
          </mxGeometry>
        </mxCell>
        <mxCell id="L02m6PkvPeWe66beyYOA-71" style="edgeStyle=orthogonalEdgeStyle;rounded=0;orthogonalLoop=1;jettySize=auto;html=1;exitX=0.061;exitY=0.754;exitDx=0;exitDy=0;entryX=0.25;entryY=0;entryDx=0;entryDy=0;exitPerimeter=0;" edge="1" parent="1" source="L02m6PkvPeWe66beyYOA-63" target="L02m6PkvPeWe66beyYOA-12">
          <mxGeometry relative="1" as="geometry">
            <Array as="points">
              <mxPoint x="60" y="770" />
              <mxPoint x="60" y="130" />
              <mxPoint x="165" y="130" />
            </Array>
          </mxGeometry>
        </mxCell>
        <mxCell id="L02m6PkvPeWe66beyYOA-72" value="Laporan Kinerja kurir" style="edgeLabel;html=1;align=center;verticalAlign=middle;resizable=0;points=[];" vertex="1" connectable="0" parent="L02m6PkvPeWe66beyYOA-71">
          <mxGeometry x="-0.5697" relative="1" as="geometry">
            <mxPoint x="42" as="offset" />
          </mxGeometry>
        </mxCell>
        <mxCell id="L02m6PkvPeWe66beyYOA-63" value="&lt;font face=&quot;Times New Roman&quot;&gt;&lt;span style=&quot;font-size: 14px;&quot;&gt;7.0&amp;nbsp;&lt;br&gt;&lt;/span&gt;&lt;/font&gt;Kinerja Kurir" style="ellipse;whiteSpace=wrap;html=1;aspect=fixed;" vertex="1" parent="1">
          <mxGeometry x="360" y="710" width="80" height="80" as="geometry" />
        </mxCell>
      </root>
    </mxGraphModel>
  </diagram>
</mxfile>
